<svg width="56" height="56" viewBox="0 0 56 56" fill="none" xmlns="http://www.w3.org/2000/svg">
<rect width="56" height="56" rx="4" fill="#FDF4DC"/>
<path d="M12 16C12 13.7909 13.7909 12 16 12H40C42.2091 12 44 13.7909 44 16V40C44 42.2091 42.2091 44 40 44H16C13.7909 44 12 42.2091 12 40V16Z" fill="#D9822F"/>
<path fill-rule="evenodd" clip-rule="evenodd" d="M29.1428 30.6586V33.5709L35.999 29.6927V26.8782L29.1428 23V25.9057L33.3022 28.2854L29.1428 30.6586ZM26.8562 30.6586L22.6968 28.2855L26.8562 25.9057V23L20 26.8769V29.6927L26.8562 33.5709V30.6586Z" fill="white"/>
</svg>
