<svg width="56" height="56" viewBox="0 0 56 56" fill="none" xmlns="http://www.w3.org/2000/svg">
<rect width="56" height="56" rx="4" fill="#F0F0FF"/>
<path d="M12 16C12 13.7909 13.7909 12 16 12H40C42.2091 12 44 13.7909 44 16V40C44 42.2091 42.2091 44 40 44H16C13.7909 44 12 42.2091 12 40V16Z" fill="#4945FF"/>
<path d="M27.7333 20C28.0762 20 28.4113 20.108 28.6963 20.3102C28.9814 20.5125 29.2035 20.8 29.3347 21.1363C29.4659 21.4726 29.5002 21.8427 29.4334 22.1998C29.3665 22.5569 29.2014 22.8849 28.959 23.1423C28.7166 23.3997 28.4077 23.575 28.0715 23.646C27.7353 23.7171 27.3867 23.6806 27.07 23.5413C26.7533 23.402 26.4826 23.1661 26.2921 22.8634C26.1017 22.5606 26 22.2048 26 21.8407C26 21.3525 26.1826 20.8843 26.5077 20.5391C26.8327 20.1939 27.2736 20 27.7333 20ZM32 36H24V33.7345H26.9333V27.5044H24.8V25.2389H29.0667V33.7345H32V36Z" fill="white"/>
</svg>
