<svg xmlns="http://www.w3.org/2000/svg" xmlns:xlink="http://www.w3.org/1999/xlink" width="71.97500000000001" height="29.3"><path fill="#FFF" d="M9.83 23.20L12.85 23.20L12.85 5.83L8.45 5.83C4.03 5.83 1.70 8.10 1.70 11.45C1.70 14.13 2.98 15.70 5.25 17.33L1.30 23.20L4.58 23.20L8.97 16.63L7.45 15.60C5.60 14.35 4.70 13.38 4.70 11.28C4.70 9.43 6 8.18 8.47 8.18L9.83 8.18ZM68.15 23.45C69.53 23.45 70.50 23.20 71.23 22.68L71.23 20.25C70.48 20.78 69.58 21.10 68.33 21.10C66.20 21.10 65.33 19.45 65.33 16.85C65.33 14.13 66.40 12.73 68.35 12.73C69.50 12.73 70.63 13.13 71.23 13.50L71.23 10.98C70.60 10.63 69.50 10.38 68.03 10.38C64.23 10.38 62.25 13.10 62.25 16.93C62.25 21.13 64.17 23.45 68.15 23.45ZM49.55 22.35L49.55 19.93C48.63 20.55 47.08 21.10 45.63 21.10C43.45 21.10 42.63 20.08 42.50 17.98L49.68 17.98L49.68 16.40C49.68 12.03 47.75 10.38 44.78 10.38C41.15 10.38 39.43 13.15 39.43 16.95C39.43 21.33 41.58 23.45 45.38 23.45C47.28 23.45 48.68 22.95 49.55 22.35ZM59.05 23.20L62.43 23.20L57.65 16.53L61.85 10.63L58.85 10.63L54.65 16.53L54.65 10.63L51.68 10.63L51.68 23.20L54.65 23.20L54.65 17.13ZM38.70 20.85L37.38 20.85L37.38 10.63L28.70 10.63L28.70 11.70C28.70 14.78 28.50 18.75 27.45 20.85L26.53 20.85L26.53 26.08L29.28 26.08L29.28 23.20L35.95 23.20L35.95 26.08L38.70 26.08ZM22.30 10.63L22.30 15.60L18.32 15.60L18.32 10.63L15.35 10.63L15.35 23.20L18.32 23.20L18.32 17.95L22.30 17.95L22.30 23.20L25.28 23.20L25.28 10.63ZM44.73 12.73C46.20 12.73 46.65 13.95 46.65 15.53L46.65 15.78L42.50 15.78C42.58 13.78 43.30 12.73 44.73 12.73ZM34.40 20.85L30.20 20.85C31.03 18.95 31.25 15.53 31.25 13.35L31.25 12.98L34.40 12.98Z"/></svg>
